<svg xmlns="http://www.w3.org/2000/svg" viewBox="0 0 1000 1000"><style>.st1{fill:#fff}.st2{fill:#0195de}.st4{fill:#f2f2f2}</style><path fill="#00a0ef" d="M869.9 949H79.1A79.3 79.3 0 0 1 0 869.9V79.1A79.3 79.3 0 0 1 79.1 0h790.8A79.3 79.3 0 0 1 949 79.1v790.8a79.3 79.3 0 0 1-79.1 79.1z"/><path d="M129.5 345h90.9c19.8 0 35.6 2 47.4 4a77.5 77.5 0 0 1 37.6 23.7 131 131 0 0 1 23.7 39.5c5.9 15.8 7.9 35.6 7.9 59.3 0 19.8-2 37.6-7.9 53.4a114.9 114.9 0 0 1-25.7 43.5 77 77 0 0 1-35.6 19.8c-11.9 4-25.7 5.9-43.5 5.9h-94.9V345h.1zm51.4 43.5v164.1h37.6c13.8 0 23.7 0 29.7-2 7.9-2 15.8-5.9 19.8-9.9 5.9-4 9.9-13.8 13.8-23.7 4-11.9 5.9-25.7 5.9-45.5s-2-33.6-5.9-43.5a69 69 0 0 0-13.8-23.7 45.3 45.3 0 0 0-23.7-11.9c-7.9-2-19.8-2-41.5-2h-21.7v-1.9h-.2zM380.6 594.1V345H430l100.8 166.1V345h47.4v249.1h-49.4L428 432v162.1h-47.4zM617.8 513.1l49.4-4c2 15.8 7.9 27.7 17.8 35.6a55.2 55.2 0 0 0 35.6 11.9 59 59 0 0 0 35.6-9.9 30.9 30.9 0 0 0 11.9-23.7c0-5.9-2-9.9-5.9-15.8-4-4-9.9-7.9-17.8-9.9-5.9-2-19.8-5.9-39.5-9.9a158.7 158.7 0 0 1-57.3-23.7 62.7 62.7 0 0 1-23.7-49.4 81 81 0 0 1 9.9-35.6 67.6 67.6 0 0 1 31.6-25.7 124 124 0 0 1 49.4-7.9c31.6 0 55.4 5.9 71.2 19.8s23.7 31.6 25.7 55.4l-49.4 2c-2-11.9-5.9-21.7-13.8-27.7-7.9-5.9-17.8-7.9-31.6-7.9s-25.7 4-33.6 9.9c-5.9 4-7.9 9.9-7.9 15.8s2 11.9 7.9 15.8c5.9 5.9 21.7 9.9 45.5 15.8 23.7 5.9 41.5 11.9 53.4 17.8s21.7 13.8 27.7 25.7a78.1 78.1 0 0 1 9.9 39.5c0 13.8-4 27.7-11.9 39.5a77.6 77.6 0 0 1-33.6 27.7 135.6 135.6 0 0 1-53.4 9.9c-31.6 0-57.1-5.9-73.2-21.7-18.2-17.9-25.9-41.7-29.9-69.3z" class="st1"/><g><path d="M248.1 550.6c7.9-2 15.8-5.9 19.8-9.9 5.9-4 9.9-13.8 13.8-23.7 4-11.9 5.9-25.7 5.9-45.5s-2-33.6-5.9-43.5a69 69 0 0 0-13.8-23.7 45.3 45.3 0 0 0-23.7-11.9c-7.9-2-19.8-2-41.5-2H181v162.1h37.6c13.7.1 23.6.1 29.5-1.9z" class="st2"/><path d="M476.6 949H870a79.3 79.3 0 0 0 79.1-79.1V515.1L793.1 372a79.5 79.5 0 0 1 18.5 48.1l-49.4 2c-2-11.9-5.9-21.7-13.8-27.7-7.9-5.9-17.8-7.9-31.6-7.9s-25.7 4-33.6 9.9c-5.9 4-7.9 9.9-7.9 15.8s2 11.9 7.9 15.8c5.9 5.9 21.7 9.9 45.5 15.8s41.5 11.9 53.4 17.8 21.7 13.8 27.7 25.7a78.1 78.1 0 0 1 9.9 39.5c0 13.8-4 27.7-11.9 39.5a77.6 77.6 0 0 1-33.6 27.7 135.6 135.6 0 0 1-53.4 9.9c-31.6 0-57.1-5.9-73.2-21.7-18-17.8-25.7-41.5-29.7-69.2l49.4-4c2 15.8 7.9 27.7 17.8 35.6a55.2 55.2 0 0 0 35.6 11.9 59 59 0 0 0 35.6-9.9 30.9 30.9 0 0 0 11.9-23.7c0-5.9-2-9.9-5.9-15.8-4-4-9.9-7.9-17.8-9.9-5.9-2-19.8-5.9-39.5-9.9a158.7 158.7 0 0 1-57.3-23.7 62.7 62.7 0 0 1-19.3-72.2l-49.8-45.6v248.4h-49.4L428 432v162.1h-47.4V452.3l-51.4-40.1c5.9 15.8 7.9 35.6 7.9 59.3 0 19.8-2 37.6-7.9 53.4a114.9 114.9 0 0 1-25.7 43.5 77 77 0 0 1-35.6 19.8c-11.9 4-25.7 5.9-43.5 5.9h-94.9v-6.9l-.4 6.9L476.6 949z" class="st2"/></g></svg>